<svg xmlns="http://www.w3.org/2000/svg" width="800" height="600" viewBox="0 0 800 600">
  <defs>
    <linearGradient id="g" x1="0" y1="0" x2="1" y2="1">
      <stop offset="0%" stop-color="#22c55e"/>
      <stop offset="100%" stop-color="#14b8a6"/>
    </linearGradient>
  </defs>
  <rect width="800" height="600" fill="url(#g)"/>
  <rect x="150" y="220" width="500" height="220" rx="30" fill="#000" fill-opacity="0.25"/>
  <g fill="#fff" fill-opacity="0.65">
    <g transform="translate(0, 240)">
      <rect x="180" width="32" height="20" rx="4"/>
      <rect x="220" width="32" height="20" rx="4"/>
      <rect x="260" width="32" height="20" rx="4"/>
      <rect x="300" width="32" height="20" rx="4"/>
      <rect x="340" width="32" height="20" rx="4"/>
      <rect x="380" width="32" height="20" rx="4"/>
      <rect x="420" width="32" height="20" rx="4"/>
      <rect x="460" width="32" height="20" rx="4"/>
      <rect x="500" width="32" height="20" rx="4"/>
      <rect x="540" width="32" height="20" rx="4"/>
      <rect x="580" width="32" height="20" rx="4"/>
      <rect x="620" width="32" height="20" rx="4"/>
    </g>
    <g transform="translate(0, 275)">
      <rect x="190" width="32" height="20" rx="4"/>
      <rect x="230" width="32" height="20" rx="4"/>
      <rect x="270" width="32" height="20" rx="4"/>
      <rect x="310" width="32" height="20" rx="4"/>
      <rect x="350" width="32" height="20" rx="4"/>
      <rect x="390" width="32" height="20" rx="4"/>
      <rect x="430" width="32" height="20" rx="4"/>
      <rect x="470" width="32" height="20" rx="4"/>
      <rect x="510" width="32" height="20" rx="4"/>
      <rect x="550" width="32" height="20" rx="4"/>
      <rect x="590" width="32" height="20" rx="4"/>
    </g>
    <g transform="translate(0, 310)">
      <rect x="200" width="32" height="20" rx="4"/>
      <rect x="240" width="32" height="20" rx="4"/>
      <rect x="280" width="32" height="20" rx="4"/>
      <rect x="320" width="32" height="20" rx="4"/>
      <rect x="360" width="32" height="20" rx="4"/>
      <rect x="400" width="32" height="20" rx="4"/>
      <rect x="440" width="32" height="20" rx="4"/>
      <rect x="480" width="32" height="20" rx="4"/>
      <rect x="520" width="32" height="20" rx="4"/>
      <rect x="560" width="32" height="20" rx="4"/>
    </g>
    <g transform="translate(0, 345)">
      <rect x="210" width="32" height="20" rx="4"/>
      <rect x="250" width="32" height="20" rx="4"/>
      <rect x="290" width="32" height="20" rx="4"/>
      <rect x="330" width="32" height="20" rx="4"/>
      <rect x="370" width="32" height="20" rx="4"/>
      <rect x="410" width="32" height="20" rx="4"/>
      <rect x="450" width="32" height="20" rx="4"/>
      <rect x="490" width="32" height="20" rx="4"/>
      <rect x="530" width="32" height="20" rx="4"/>
    </g>
    <g transform="translate(0, 380)">
      <rect x="220" width="32" height="20" rx="4"/>
      <rect x="260" width="32" height="20" rx="4"/>
      <rect x="300" width="32" height="20" rx="4"/>
      <rect x="340" width="32" height="20" rx="4"/>
      <rect x="380" width="32" height="20" rx="4"/>
      <rect x="420" width="32" height="20" rx="4"/>
      <rect x="460" width="32" height="20" rx="4"/>
      <rect x="500" width="32" height="20" rx="4"/>
    </g>
    <g transform="translate(0, 415)">
      <rect x="240" width="32" height="20" rx="4"/>
      <rect x="280" width="32" height="20" rx="4"/>
      <rect x="320" width="32" height="20" rx="4"/>
      <rect x="360" width="32" height="20" rx="4"/>
      <rect x="400" width="32" height="20" rx="4"/>
      <rect x="440" width="32" height="20" rx="4"/>
    </g>
  </g>
  <text x="50%" y="90%" dominant-baseline="middle" text-anchor="middle" font-family="Arial" font-size="40" fill="#fff" opacity="0.85">Keyboard</text>
</svg>
